PathFileType	4	(X/Y/Z)	D:\TRACE\v60_Jaco2_6-2-23\JustArmDRS_Motion3_2-platform.trc
DataRate	CameraRate	NumFrames	NumMarkers	Units	OrigDataRate	OrigDataStartFrame	OrigNumFrames
100.00	100.00	      59	5	mm	100.00	5251	      7000
Frame#	Time	Left_Front			Right_Front			Left_Aft			Right_Aft			Post			
		X1	Y1	Z1	X2	Y2	Z2	X3	Y3	Z3	X4	Y4	Z4	X5	Y5	Z5	

5251	52.500	-758.08844	-15.77029	-656.20422	812.56628	-17.13063	-633.77893	-689.58179	27.95418	477.06381	725.23785	28.77750	582.66284	38.20247	1269.24585	-1017.71722	
5252	52.510	-758.15186	-15.58388	-656.19208	812.35211	-16.69118	-633.43109	-689.50146	27.74389	477.10724	725.23083	28.62576	582.70654	38.21319	1269.55847	-1017.26904	
5253	52.520	-758.34644	-15.37889	-656.13428	812.20490	-16.51163	-633.48291	-689.60675	27.70305	477.08575	725.09033	28.53868	582.73541	38.10920	1269.85950	-1016.94403	
5254	52.530	-758.50378	-15.20264	-656.08289	812.11346	-16.43690	-633.45929	-689.74835	27.60653	477.07532	725.04285	28.47333	582.78192	37.98598	1270.11499	-1016.55743	
5255	52.540	-758.66980	-15.07127	-656.10596	811.86383	-16.28127	-633.41400	-690.10223	27.53004	477.10092	724.76648	28.39947	582.96387	37.60148	1270.26733	-1016.07635	
5256	52.550	-758.82629	-14.94724	-656.11737	811.65497	-16.09267	-633.38580	-690.29590	27.37567	477.10269	724.54016	28.34166	582.94952	37.20586	1270.42334	-1015.67090	
5257	52.560	-758.90302	-14.83766	-656.11713	811.52924	-15.93292	-633.32300	-690.41022	27.24846	477.19049	724.49066	28.25837	582.97253	37.30622	1270.84021	-1015.61267	
5258	52.570	-758.96503	-14.73128	-656.12280	811.47400	-15.80569	-633.35895	-690.44629	27.09594	477.28476	724.33502	28.16713	583.04120	37.14217	1271.07263	-1015.18182	
5259	52.580	-759.04279	-14.58732	-656.11395	811.46863	-15.61511	-633.23376	-690.52118	26.94342	477.36325	724.42957	28.03608	583.01331	37.08799	1271.25244	-1014.74915	
5260	52.590	-759.23224	-14.75678	-656.35559	811.23407	-15.53463	-633.30316	-690.63098	26.85958	477.41748	724.36163	27.92637	583.03546	36.94261	1271.46191	-1014.49646	
5261	52.600	-759.35565	-14.59100	-656.38373	811.04041	-15.41096	-633.22821	-690.76495	26.74714	477.54364	724.19342	27.86312	583.09558	36.70685	1271.70837	-1014.31683	
5262	52.610	-759.42670	-14.50799	-656.31750	810.95105	-15.26988	-633.11951	-690.93701	26.70350	477.57678	724.07117	27.74532	583.14783	36.31602	1271.83093	-1013.96838	
5263	52.620	-759.52972	-14.38144	-656.22589	810.83765	-15.17427	-633.11560	-691.10645	26.69353	477.59283	723.75507	27.62250	583.15961	36.53484	1272.06274	-1014.05865	
5264	52.630	-759.60596	-14.30195	-656.14270	810.64941	-15.05522	-633.05493	-691.31854	26.60078	477.57709	723.53998	27.34476	583.08459	36.44087	1272.17700	-1013.87140	
5265	52.640	-759.68231	-14.24128	-656.10400	810.52966	-14.96327	-633.04688	-691.44342	26.57882	477.56558	723.42230	27.22845	583.06335	36.26711	1272.37805	-1013.67096	
5266	52.650	-759.79956	-14.14278	-656.02167	810.32782	-14.89609	-633.00592	-691.66492	26.57697	477.55670	723.20856	27.28878	583.19196	36.07654	1272.64526	-1013.42535	
5267	52.660	-760.01917	-14.03930	-656.03546	810.16022	-14.77739	-632.95575	-691.84167	26.49614	477.58249	722.97015	27.04557	583.06427	35.90420	1272.71240	-1013.28754	
5268	52.670	-760.16107	-13.91229	-655.95795	810.01935	-14.66968	-632.93823	-692.01288	26.49874	477.55405	722.76752	26.97768	583.07471	35.68872	1272.84900	-1013.13684	
5269	52.680	-760.50854	-13.56092	-655.78485	809.88855	-14.54844	-632.91528	-692.22064	26.43268	477.56808	722.62292	26.96630	583.08929	35.33842	1273.03235	-1012.92572	
5270	52.690	-760.73212	-13.50239	-655.84930	809.75659	-14.47862	-632.92322	-692.37341	26.31166	477.56729	722.40961	26.89259	583.15649	35.13581	1273.18701	-1012.76434	
5271	52.700	-760.81750	-13.47748	-655.88531	809.51654	-14.39301	-632.93604	-692.54248	26.26391	477.55731	722.30652	26.88057	583.10193	35.07005	1273.29321	-1012.61572	
5272	52.710	-761.05127	-13.48298	-655.85498	809.26898	-14.23068	-632.91669	-692.70813	26.24150	477.59082	721.91156	26.83805	583.38470	35.00459	1273.44067	-1012.47412	
5273	52.720	-761.32672	-13.43684	-655.86218	809.26080	-14.33000	-633.24261	-692.93042	26.17721	477.58719	721.61633	26.90924	583.24792	34.76315	1273.52454	-1012.31427	
5274	52.730	-761.75635	-13.69843	-656.14606	809.01721	-14.26716	-633.23389	-693.26123	26.15261	477.62646	721.52136	26.95441	583.03595	34.44342	1273.59644	-1012.08447	
5275	52.740	-762.03198	-13.61831	-656.11951	808.60583	-14.09693	-632.93652	-693.42944	26.13083	477.66873	721.48779	26.84364	583.19391	34.16100	1273.60938	-1011.85889	
5276	52.750	-762.29779	-13.55408	-656.07800	808.56537	-14.20432	-633.30499	-693.65039	26.12177	477.70203	721.24048	26.78017	583.20856	34.01264	1273.63562	-1011.73889	
5277	52.760	-762.33264	-13.53127	-656.08051	808.40967	-14.16223	-633.27637	-693.86023	26.20098	477.69470	721.11395	26.74010	583.16791	33.78428	1273.69678	-1011.56329	
5278	52.770	-762.25830	-13.16164	-655.68658	808.19775	-14.16289	-633.27405	-693.99652	26.14035	477.70554	720.95782	26.76728	583.26111	33.64985	1273.72864	-1011.42035	
5279	52.780	-762.37915	-13.14645	-655.61884	807.69971	-14.01674	-632.93866	-694.13049	26.03533	477.67892	720.82550	26.73623	583.27618	33.51873	1273.72974	-1011.36560	
5280	52.790	-762.21185	-13.21951	-654.94891	807.38904	-13.98821	-632.86890	-694.37476	26.06246	477.59625	720.60565	26.67191	583.28864	33.38858	1273.73962	-1011.33783	
5281	52.800	-762.58423	-13.08170	-655.02582	807.22473	-13.95822	-632.89911	-694.73560	26.14799	477.63644	720.36005	26.61567	583.29083	33.10940	1273.76270	-1011.30920	
5282	52.810	-762.76654	-12.98943	-654.93304	807.12915	-13.97306	-632.91016	-695.00122	26.11676	477.66840	720.05774	26.58217	583.31622	32.95847	1273.81897	-1011.29913	
5283	52.820	-762.97906	-12.80980	-655.08154	806.95068	-13.96894	-632.92712	-695.12714	25.92119	477.77954	719.76196	26.52741	583.31335	32.74345	1273.87195	-1011.26666	
5284	52.830	-763.65710	-12.73932	-655.47498	806.85181	-14.15627	-633.25739	-695.36749	25.85876	477.77063	719.49365	26.54219	583.35596	32.53800	1273.90991	-1011.28424	
5285	52.840	-763.92468	-12.71583	-655.46637	806.60846	-14.12631	-633.22314	-695.57642	25.90902	477.77972	719.43420	26.45478	583.31354	32.35129	1273.95422	-1011.19434	
5286	52.850	-764.20355	-12.77847	-655.51611	806.18134	-13.88583	-632.94855	-695.81757	25.89218	477.78281	719.26221	26.43543	583.37610	32.15612	1274.00159	-1011.13879	
5287	52.860	-764.38849	-12.85004	-655.70038	806.17041	-13.96693	-633.20758	-695.96240	25.87860	477.79056	718.97443	26.33236	583.35205	31.94435	1274.02307	-1011.07819	
5288	52.870	-764.59473	-12.89094	-655.81543	805.78662	-13.72648	-632.85706	-696.08148	25.89464	477.80417	718.74597	26.27417	583.30957	31.76453	1274.01501	-1011.03143	
5289	52.880	-764.77753	-12.83712	-655.89417	805.61597	-13.74064	-632.81671	-696.20587	25.87421	477.79358	718.36304	26.30973	583.43231	31.56802	1274.00574	-1010.99023	
5290	52.890	-765.01404	-12.77025	-655.97919	805.43604	-13.74272	-632.84259	-696.33337	25.88678	477.78973	718.29285	26.24548	583.29999	31.37788	1274.01025	-1011.03564	
5291	52.900	-765.23724	-12.73649	-655.96393	805.18561	-13.79611	-632.95270	-696.69263	26.00243	477.84888	718.01440	26.25666	583.30902	31.17223	1274.01233	-1011.03339	
5292	52.910	-765.46820	-12.75233	-655.90533	804.92047	-13.78317	-632.93365	-697.00061	26.01949	477.85159	717.80286	26.12144	583.28290	30.82638	1273.98767	-1011.11115	
5293	52.920	-765.62701	-13.11627	-656.26233	804.77197	-13.76488	-632.90070	-697.27490	26.01405	477.79752	717.55096	26.31385	583.35010	30.56421	1274.01880	-1011.19562	
5294	52.930	-765.86420	-12.84228	-655.91986	804.56573	-13.73858	-632.93225	-697.50238	25.98963	477.74222	717.30298	26.35268	583.34845	30.24707	1274.01074	-1011.33167	
5295	52.940	-766.00964	-13.16534	-656.41809	804.44147	-13.78306	-632.95990	-697.67865	25.93822	477.69824	717.19513	26.37818	583.37561	30.13225	1274.01965	-1011.38751	
5296	52.950	-766.18073	-13.10391	-656.32745	804.26068	-13.83334	-632.91077	-697.81561	25.91694	477.66177	717.05011	26.37988	583.36652	29.91878	1273.99634	-1011.43701	
5297	52.960	-766.25543	-12.79141	-655.86621	804.06183	-13.83454	-632.88196	-698.01703	25.90422	477.65704	716.87830	26.40533	583.33563	29.70535	1273.99255	-1011.45422	
5298	52.970	-766.45959	-12.74667	-655.67999	803.79193	-13.88333	-632.88123	-698.25159	25.91026	477.65689	716.80115	26.20551	583.22113	29.44466	1274.03760	-1011.34698	
5299	52.980	-766.52179	-12.76721	-655.72076	803.58936	-13.85639	-632.89014	-698.34412	25.88019	477.63452	716.56549	26.23165	583.16370	29.19039	1274.05322	-1011.33313	
5300	52.990	-766.56482	-12.77765	-655.35254	803.32556	-13.88043	-632.95569	-698.45093	25.87458	477.60745	716.20874	26.44041	583.32031	29.05364	1274.12305	-1011.23975	
5301	53.000	-766.67645	-12.74636	-655.39923	803.18549	-13.88043	-633.00171	-698.51831	25.83596	477.56921	716.10126	26.49579	583.26904	28.99332	1274.11230	-1011.24994	
5302	53.010	-766.85876	-12.78298	-655.16895	803.00952	-13.87374	-633.02826	-698.64880	25.82203	477.59650	716.01685	26.50890	583.31537	28.94834	1274.09985	-1011.21179	
5303	53.020	-767.35291	-12.84079	-655.49835	802.84241	-13.86868	-633.10559	-698.77161	25.82082	477.61432	715.90234	26.47252	583.33960	28.87831	1274.10632	-1011.22693	
5304	53.030	-767.51361	-12.92274	-655.46912	802.74487	-13.85957	-633.11853	-698.95691	25.92233	477.64709	715.72931	26.46853	583.34100	28.80107	1274.15222	-1011.24573	
5305	53.040	-767.64758	-12.90241	-655.42554	802.62054	-13.86999	-633.13702	-699.21863	25.97380	477.65500	715.68951	26.39989	583.32111	28.65182	1274.13330	-1011.28925	
5306	53.050	-767.77179	-12.95588	-655.49072	802.49072	-13.83101	-633.13788	-699.41016	25.99901	477.64572	715.47699	26.45892	583.27625	28.50954	1274.14868	-1011.30499	
5307	53.060	-767.95648	-12.93675	-655.61261	802.40375	-13.85759	-633.14386	-699.55658	26.03260	477.59802	715.43854	26.49796	583.27924	28.48333	1274.08838	-1011.35016	
5308	53.070	-768.03644	-13.05667	-655.64307	802.28046	-13.89221	-633.13373	-699.73926	26.07664	477.56760	715.36536	26.53482	583.23633	28.27519	1274.05652	-1011.42468	
5309	53.080	-768.16266	-13.16478	-655.64746	802.16150	-13.94654	-633.12219	-699.79749	26.02814	477.55554	715.31708	26.57006	583.20880	28.25628	1273.93518	-1011.42194	
